<svg width="45" height="45" viewBox="0 0 45 45" fill="none" xmlns="http://www.w3.org/2000/svg">
<path d="M22.5016 0C16.391 0 15.6241 0.0267192 13.224 0.135938C10.8287 0.245625 9.19369 0.624844 7.76305 1.18125C6.28319 1.75594 5.02787 2.52469 3.77723 3.77578C2.52565 5.02641 1.75689 6.28172 1.18032 7.76109C0.622506 9.19219 0.242815 10.8277 0.135001 13.222C0.0281254 15.622 0 16.3894 0 22.5C0 28.6106 0.0271882 29.3752 0.135939 31.7752C0.246097 34.1705 0.625319 35.8055 1.18126 37.2361C1.75642 38.7159 2.52518 39.9713 3.77629 41.2219C5.02646 42.4734 6.28178 43.2441 7.76071 43.8188C9.19228 44.3752 10.8278 44.7544 13.2226 44.8641C15.6227 44.9733 16.3891 45 22.4993 45C28.6105 45 29.375 44.9733 31.775 44.8641C34.1704 44.7544 35.8073 44.3752 37.2388 43.8188C38.7182 43.2441 39.9717 42.4734 41.2218 41.2219C42.4734 39.9713 43.2422 38.7159 43.8187 37.2366C44.3719 35.8055 44.7516 34.17 44.8641 31.7756C44.9719 29.3756 45 28.6106 45 22.5C45 16.3894 44.9719 15.6225 44.8641 13.2225C44.7516 10.8272 44.3719 9.19219 43.8187 7.76156C43.2422 6.28172 42.4734 5.02641 41.2218 3.77578C39.9703 2.52422 38.7187 1.75547 37.2374 1.18125C35.803 0.624844 34.1671 0.245625 31.7717 0.135938C29.3717 0.0267192 28.6076 0 22.4951 0H22.5016ZM20.4832 4.05469C21.0823 4.05375 21.7507 4.05469 22.5016 4.05469C28.5092 4.05469 29.2212 4.07625 31.5936 4.18406C33.7874 4.28438 34.978 4.65094 35.7712 4.95891C36.8212 5.36672 37.5698 5.85422 38.3568 6.64172C39.1443 7.42922 39.6318 8.17922 40.0406 9.22922C40.3486 10.0214 40.7156 11.212 40.8154 13.4058C40.9232 15.7777 40.9467 16.4902 40.9467 22.4948C40.9467 28.4995 40.9232 29.212 40.8154 31.5839C40.7151 33.7777 40.3486 34.9683 40.0406 35.7605C39.6328 36.8105 39.1443 37.5581 38.3568 38.3452C37.5693 39.1327 36.8216 39.6202 35.7712 40.028C34.979 40.3373 33.7874 40.703 31.5936 40.8033C29.2217 40.9111 28.5092 40.9345 22.5016 40.9345C16.4936 40.9345 15.7816 40.9111 13.4097 40.8033C11.2159 40.702 10.0253 40.3355 9.23166 40.0275C8.18165 39.6197 7.43164 39.1322 6.64413 38.3447C5.85662 37.5572 5.36912 36.8091 4.96036 35.7586C4.65239 34.9664 4.28536 33.7758 4.18551 31.582C4.0777 29.2102 4.05614 28.4977 4.05614 22.4892C4.05614 16.4808 4.0777 15.772 4.18551 13.4002C4.28583 11.2064 4.65239 10.0158 4.96036 9.22266C5.36818 8.17266 5.85662 7.42266 6.64413 6.63516C7.43164 5.84766 8.18165 5.36016 9.23166 4.95141C10.0248 4.64203 11.2159 4.27641 13.4097 4.17563C15.4853 4.08188 16.2897 4.05375 20.4832 4.04906V4.05469Z" fill="#363B23"/>
<path d="M34.4637 7.73536C33.9296 7.73536 33.4076 7.89373 32.9635 8.19045C32.5195 8.48717 32.1734 8.90891 31.9691 9.40233C31.7648 9.89574 31.7114 10.4387 31.8156 10.9624C31.9199 11.4862 32.1771 11.9673 32.5548 12.3449C32.9325 12.7224 33.4137 12.9795 33.9375 13.0836C34.4613 13.1877 35.0043 13.1341 35.4976 12.9296C35.991 12.7251 36.4126 12.3788 36.7091 11.9347C37.0057 11.4906 37.1639 10.9685 37.1637 10.4344C37.1637 8.94379 35.9543 7.73536 34.4637 7.73536Z" fill="#363B23"/>
<path fill-rule="evenodd" clip-rule="evenodd" d="M22.4533 10.89C16.0721 10.89 10.8984 16.0636 10.8984 22.4447C10.8984 28.8258 16.0721 33.9971 22.4533 33.9971C28.8344 33.9971 34.0067 28.8258 34.0067 22.4447C34.0067 16.0636 28.8344 10.89 22.4533 10.89ZM22.5 29.8829C26.5774 29.8829 29.8828 26.5775 29.8828 22.5C29.8828 18.4226 26.5774 15.1172 22.5 15.1172C18.4226 15.1172 15.1172 18.4226 15.1172 22.5C15.1172 26.5775 18.4226 29.8829 22.5 29.8829Z" fill="#363B23"/>
</svg>
