<svg width="45" height="45" viewBox="0 0 45 45" fill="none" xmlns="http://www.w3.org/2000/svg">
<g clip-path="url(#clip0_171_958)">
<path fill-rule="evenodd" clip-rule="evenodd" d="M5 45H40C42.7614 45 45 42.7614 45 40V5C45 2.23858 42.7614 0 40 0H5C2.23858 0 0 2.23858 0 5V40C0 42.7614 2.23858 45 5 45Z" fill="#363B23"/>
<path fill-rule="evenodd" clip-rule="evenodd" d="M38.75 38.75H32.0723V27.3763C32.0723 24.258 30.8874 22.5153 28.4192 22.5153C25.7341 22.5153 24.3313 24.3288 24.3313 27.3763V38.75H17.8958V17.0833H24.3313V20.0018C24.3313 20.0018 26.2663 16.4214 30.8641 16.4214C35.4598 16.4214 38.75 19.2278 38.75 25.032V38.75ZM10.2183 14.2463C8.02629 14.2463 6.25 12.456 6.25 10.2481C6.25 8.04022 8.02629 6.25 10.2183 6.25C12.4104 6.25 14.1856 8.04022 14.1856 10.2481C14.1856 12.456 12.4104 14.2463 10.2183 14.2463ZM6.89534 38.75H13.6059V17.0833H6.89534V38.75Z" fill="white"/>
</g>
<defs>
<clipPath id="clip0_171_958">
<rect width="45" height="45" fill="white"/>
</clipPath>
</defs>
</svg>
