<svg width="45" height="45" viewBox="0 0 45 45" fill="none" xmlns="http://www.w3.org/2000/svg">
<path fill-rule="evenodd" clip-rule="evenodd" d="M17.974 28.5417V16.5164C22.4564 18.5251 25.9281 20.4656 30.034 22.5578C26.6475 24.3464 22.4564 26.3534 17.974 28.5417ZM42.9548 10.5356C42.1815 9.56541 40.8637 8.81019 39.4607 8.56016C35.3368 7.81434 9.60972 7.81222 5.48809 8.56016C4.36299 8.76103 3.36113 9.24657 2.5005 10.0009C-1.12582 13.2064 0.0104989 30.3965 0.884581 33.181C1.25214 34.3863 1.7273 35.2555 2.32571 35.8261C3.09669 36.5805 4.1523 37.0999 5.36481 37.3328C8.76027 38.0017 26.2531 38.3757 39.3889 37.4333C40.5992 37.2324 41.6705 36.6963 42.5154 35.9098C45.8683 32.7171 45.6398 14.5617 42.9548 10.5356Z" fill="#363B23"/>
</svg>
